<svg width="54" height="53" viewBox="0 0 54 53" fill="none" xmlns="http://www.w3.org/2000/svg">
<path d="M54 26.5C54 11.8645 41.9117 0 27 0C12.0883 0 0 11.8645 0 26.5C0 41.1355 12.0883 53 27 53C41.9117 53 54 41.1355 54 26.5Z" fill="url(#paint0_linear_15_6)"/>
<path fill-rule="evenodd" clip-rule="evenodd" d="M10.9528 42.949C14.5922 38.0012 20.5184 34.7812 27.2109 34.7812C33.7969 34.7812 39.6408 37.8996 43.2937 42.7139C39.1039 46.77 33.3499 49.2734 27 49.2734C20.7738 49.2734 15.1203 46.8665 10.9528 42.949ZM36.2812 21.3242C36.2812 26.4695 32.2204 30.6406 27.2109 30.6406C22.2016 30.6406 18.1406 26.4695 18.1406 21.3242C18.1406 16.1789 22.2016 12.0078 27.2109 12.0078C32.2204 12.0078 36.2812 16.1789 36.2812 21.3242Z" fill="white"/>
<defs>
<linearGradient id="paint0_linear_15_6" x1="27" y1="0" x2="27" y2="53" gradientUnits="userSpaceOnUse">
<stop stop-color="#A5ABB7"/>
<stop offset="1" stop-color="#848B94"/>
</linearGradient>
</defs>
</svg>
